<svg xmlns="http://www.w3.org/2000/svg" viewBox="0 0 168.5 117.78"><defs><style>.cls-1{fill:#fff;}.cls-2{fill:none;stroke:#fff;stroke-miterlimit:10;stroke-width:4px;}</style></defs><g id="Layer_2" data-name="Layer 2"><g id="Layer_1-2" data-name="Layer 1"><path class="cls-1" d="M88.59,28.31a4.77,4.77,0,0,0-2.21.72,2.69,2.69,0,0,0-1.17,1.42l-.11.31,0,15.32c0,8.44,0,15.33,0,15.33a1.83,1.83,0,0,1-.35-.11,12.61,12.61,0,0,0-4-.62,16.29,16.29,0,0,0-4.1.52c-5.73,1.46-10.69,5.6-12.23,10.22a8.34,8.34,0,0,0-.13,5.33,9,9,0,0,0,1,2A10.82,10.82,0,0,0,67,80.59a10.42,10.42,0,0,0,4.82,1.75,18.41,18.41,0,0,0,3.32,0A19.08,19.08,0,0,0,88,75.09a11.26,11.26,0,0,0,2.29-5.81c0-.36,0-6.18,0-16,0-8.5,0-15.47,0-15.49a7.17,7.17,0,0,1,1.19.28c5.11,1.49,9.2,6.07,12,13.47.32.85.68,1.86,1,2.82.81,2.5.87,2.67,1.07,2.89a.68.68,0,0,0,1.07-.08c.15-.21.18-.38.23-1.1a3.1,3.1,0,0,0-.08-1.29,77,77,0,0,0-3-10.88,41.81,41.81,0,0,0-3.82-8c-3-4.74-6.82-7.45-10.57-7.54C89.05,28.29,88.67,28.3,88.59,28.31Z"/><circle class="cls-2" cx="58.89" cy="58.89" r="56.89"/><circle class="cls-2" cx="109.62" cy="58.89" r="56.89"/></g></g></svg>