<svg xmlns="http://www.w3.org/2000/svg" viewBox="0 0 453.66 129.99"><defs><style>.cls-1,.cls-3{fill:#fff;}.cls-2{fill:none;stroke:#fff;stroke-miterlimit:10;stroke-width:7px;}.cls-3{font-size:52px;font-family:SegoeUI-Bold, Segoe UI;font-weight:700;}.cls-4{letter-spacing:0.02em;}</style></defs><g id="Layer_2" data-name="Layer 2"><g id="Layer_1-2" data-name="Layer 1"><path class="cls-1" d="M90.09,29.81a4.77,4.77,0,0,0-2.21.72A2.69,2.69,0,0,0,86.71,32l-.11.31,0,15.32c0,8.44,0,15.33,0,15.33a1.83,1.83,0,0,1-.35-.11,12.61,12.61,0,0,0-4-.62,16.29,16.29,0,0,0-4.1.52c-5.73,1.46-10.69,5.6-12.23,10.22a8.34,8.34,0,0,0-.13,5.33,9,9,0,0,0,1,2,10.82,10.82,0,0,0,1.81,1.83,10.42,10.42,0,0,0,4.82,1.75,18.41,18.41,0,0,0,3.32,0,19.08,19.08,0,0,0,12.78-7.25,11.26,11.26,0,0,0,2.29-5.81c0-.36,0-6.18,0-16,0-8.5,0-15.47,0-15.49a7.17,7.17,0,0,1,1.19.28C98.1,41,102.19,45.61,105,53c.32.85.68,1.86,1,2.82.81,2.5.87,2.67,1.07,2.89a.68.68,0,0,0,1.07-.08c.15-.21.18-.38.23-1.1a3.1,3.1,0,0,0-.08-1.29,77,77,0,0,0-3-10.88,41.81,41.81,0,0,0-3.82-8c-3-4.74-6.82-7.45-10.57-7.54C90.55,29.79,90.17,29.8,90.09,29.81Z"/><circle class="cls-2" cx="60.39" cy="60.39" r="56.89"/><circle class="cls-2" cx="111.12" cy="60.39" r="56.89"/><text class="cls-3" transform="translate(184.04 45.2)">Spoti<tspan class="cls-4" x="128.2" y="0">f</tspan><tspan x="149.17" y="0">y Set</tspan><tspan x="0" y="62.4">Operations</tspan></text></g></g></svg>